M48
; DRILL file KiCad 10.0.6-1.fc44 date 2026-09-10T15:28:29
; FORMAT={-:-/ absolute / metric / decimal}
; #@! TF.CreationDate,2026-09-10T15:28:29-03:00
; #@! TF.GenerationSoftware,Kicad,Pcbnew,10.0.6-1.fc44
; #@! TF.FileFunction,MixedPlating,1,2
FMAT,2
METRIC
; #@! TA.AperFunction,Plated,PTH,ViaDrill
T1C0.300
; #@! TA.AperFunction,Plated,PTH,ComponentDrill
T2C0.900
; #@! TA.AperFunction,Plated,PTH,ComponentDrill
T3C1.000
; #@! TA.AperFunction,Plated,PTH,ComponentDrill
T4C1.100
%
G90
G05
T1
X72.778Y-87.699
X76.736Y-105.083
X78.083Y-103.264
X106.854Y-112.565
X109.219Y-87.324
X122.485Y-112.415
T2
X77.14Y-86.03
X77.14Y-113.97
X79.68Y-86.03
X79.68Y-113.97
X82.22Y-86.03
X82.22Y-113.97
X84.76Y-86.03
X84.76Y-113.97
X87.3Y-86.03
X87.3Y-113.97
X89.84Y-86.03
X89.84Y-113.97
X92.38Y-86.03
X92.38Y-113.97
X94.92Y-86.03
X94.92Y-113.97
X97.46Y-86.03
X97.46Y-113.97
X100.0Y-86.03
X100.0Y-113.97
X102.54Y-86.03
X102.54Y-113.97
X105.08Y-86.03
X105.08Y-113.97
X107.62Y-86.03
X107.62Y-113.97
X110.16Y-86.03
X110.16Y-113.97
X112.7Y-86.03
X112.7Y-113.97
X115.24Y-86.03
X115.24Y-113.97
X117.78Y-86.03
X117.78Y-113.97
X120.32Y-86.03
X120.32Y-113.97
X122.86Y-86.03
X122.86Y-113.97
T3
X71.32Y-84.5
X71.32Y-87.04
T4
X76.5Y-99.0
X76.5Y-103.5
X83.0Y-99.0
X83.0Y-103.5
M30
