%TF.GenerationSoftware,KiCad,Pcbnew,10.0.6-1.fc44*%
%TF.CreationDate,2026-09-10T15:28:25-03:00*%
%TF.ProjectId,wristband_discreto,77726973-7462-4616-9e64-5f6469736372,rev?*%
%TF.SameCoordinates,Original*%
%TF.FileFunction,Copper,L2,Bot*%
%TF.FilePolarity,Positive*%
%FSLAX46Y46*%
G04 Gerber Fmt 4.6, Leading zero omitted, Abs format (unit mm)*
G04 Created by KiCad (PCBNEW 10.0.6-1.fc44) date 2026-09-10 15:28:25*
%MOMM*%
%LPD*%
G01*
G04 APERTURE LIST*
%TA.AperFunction,SMDPad,CuDef*%
%ADD10R,1.000000X1.000000*%
%TD*%
%TA.AperFunction,ViaPad*%
%ADD11C,0.600000*%
%TD*%
%TA.AperFunction,Conductor*%
%ADD12C,0.200000*%
%TD*%
%TA.AperFunction,Conductor*%
%ADD13C,0.500000*%
%TD*%
G04 APERTURE END LIST*
D10*
%TO.P,SHLD1,1*%
%TO.N,GND*%
X100000000Y-100000000D03*
%TD*%
D11*
%TO.N,GND*%
X100000000Y-109100000D03*
X101200000Y-111500000D03*
X100000000Y-110300000D03*
X100000000Y-111500000D03*
X101200000Y-109100000D03*
X100800000Y-100000000D03*
X101200000Y-110300000D03*
X100565685Y-100565685D03*
X96539314Y-109814361D03*
X87241053Y-104252982D03*
X98800000Y-109100000D03*
X91492577Y-109704791D03*
X104852102Y-113691805D03*
X98800000Y-111500000D03*
X106843761Y-108977155D03*
X98800000Y-110300000D03*
X89816298Y-108586771D03*
X107335857Y-112982428D03*
X100800000Y-85345000D03*
%TO.N,NET_DEC2*%
X105000000Y-107500000D03*
X103500000Y-114500000D03*
%TO.N,NET_DEC4*%
X92500000Y-108000000D03*
X104000000Y-112000000D03*
%TO.N,NET_XC1*%
X93000000Y-111500000D03*
X103500000Y-109000000D03*
%TO.N,NET_XC2*%
X94500000Y-109000000D03*
X103000000Y-108000000D03*
%TO.N,VDD_BAT*%
X92000000Y-112500000D03*
X98000000Y-113000000D03*
X98000000Y-107500000D03*
X95000000Y-114000000D03*
%TD*%
%TO.N,NET_DEC2*%
D12*
X105000000Y-110000000D02*
X105000000Y-109500000D01*
X103500000Y-114500000D02*
X103500000Y-114000000D01*
X105000000Y-112000000D02*
X105000000Y-111500000D01*
X105000000Y-109000000D02*
X105000000Y-108500000D01*
X105000000Y-113000000D02*
X105000000Y-112500000D01*
X105000000Y-110500000D02*
X105000000Y-110000000D01*
X104500000Y-113000000D02*
X105000000Y-113000000D01*
X105000000Y-111000000D02*
X105000000Y-110500000D01*
X104000000Y-114000000D02*
X104000000Y-113500000D01*
X104000000Y-113000000D02*
X104500000Y-113000000D01*
X104000000Y-113500000D02*
X104000000Y-113000000D01*
X105000000Y-108000000D02*
X105000000Y-107500000D01*
X105000000Y-111500000D02*
X105000000Y-111000000D01*
X105000000Y-108500000D02*
X105000000Y-108000000D01*
X105000000Y-112500000D02*
X105000000Y-112000000D01*
X103500000Y-114000000D02*
X104000000Y-114000000D01*
X105000000Y-109500000D02*
X105000000Y-109000000D01*
%TO.N,NET_DEC4*%
X94500000Y-106000000D02*
X94000000Y-106000000D01*
X102000000Y-107000000D02*
X101500000Y-107000000D01*
X97000000Y-106000000D02*
X96500000Y-106000000D01*
X95000000Y-106000000D02*
X94500000Y-106000000D01*
X96000000Y-106000000D02*
X95500000Y-106000000D01*
X104500000Y-109500000D02*
X104500000Y-109000000D01*
X98500000Y-106000000D02*
X98000000Y-106000000D01*
X104000000Y-112000000D02*
X104000000Y-111500000D01*
X104000000Y-109500000D02*
X104500000Y-109500000D01*
X98000000Y-106000000D02*
X97500000Y-106000000D01*
X96500000Y-106000000D02*
X96000000Y-106000000D01*
X101000000Y-107000000D02*
X100500000Y-107000000D01*
X103000000Y-107000000D02*
X102500000Y-107000000D01*
X93000000Y-107500000D02*
X93000000Y-108000000D01*
X102500000Y-107000000D02*
X102000000Y-107000000D01*
X93000000Y-107000000D02*
X93000000Y-107500000D01*
X93500000Y-106000000D02*
X93000000Y-106000000D01*
X104000000Y-107500000D02*
X104000000Y-107000000D01*
X94000000Y-106000000D02*
X93500000Y-106000000D01*
X104000000Y-108000000D02*
X104000000Y-107500000D01*
X99500000Y-106000000D02*
X99000000Y-106000000D01*
X95500000Y-106000000D02*
X95000000Y-106000000D01*
X104000000Y-107000000D02*
X103500000Y-107000000D01*
X93000000Y-106500000D02*
X93000000Y-107000000D01*
X104000000Y-110000000D02*
X104000000Y-109500000D01*
X104500000Y-109000000D02*
X104500000Y-108500000D01*
X93000000Y-108000000D02*
X92500000Y-108000000D01*
X100500000Y-107000000D02*
X100000000Y-107000000D01*
X100000000Y-107000000D02*
X100000000Y-106500000D01*
X104000000Y-108500000D02*
X104000000Y-108000000D01*
X104000000Y-111500000D02*
X104000000Y-111000000D01*
X100000000Y-106500000D02*
X100000000Y-106000000D01*
X99000000Y-106000000D02*
X98500000Y-106000000D01*
X104000000Y-111000000D02*
X104000000Y-110500000D01*
X104500000Y-108500000D02*
X104000000Y-108500000D01*
X101500000Y-107000000D02*
X101000000Y-107000000D01*
X93000000Y-106000000D02*
X93000000Y-106500000D01*
X100000000Y-106000000D02*
X99500000Y-106000000D01*
X97500000Y-106000000D02*
X97000000Y-106000000D01*
X103500000Y-107000000D02*
X103000000Y-107000000D01*
X104000000Y-110500000D02*
X104000000Y-110000000D01*
%TO.N,NET_XC1*%
X100000000Y-113000000D02*
X99500000Y-113000000D01*
X96500000Y-114000000D02*
X96000000Y-114000000D01*
X99000000Y-114000000D02*
X98500000Y-114000000D01*
X102000000Y-109000000D02*
X102000000Y-109500000D01*
X102500000Y-109000000D02*
X102000000Y-109000000D01*
X94000000Y-112000000D02*
X93500000Y-112000000D01*
X99000000Y-113000000D02*
X99000000Y-113500000D01*
X96000000Y-114000000D02*
X96000000Y-113500000D01*
X96000000Y-112500000D02*
X96000000Y-112000000D01*
X103000000Y-109000000D02*
X102500000Y-109000000D01*
X102000000Y-112500000D02*
X102000000Y-113000000D01*
X97000000Y-114000000D02*
X96500000Y-114000000D01*
X102000000Y-113000000D02*
X101500000Y-113000000D01*
X102000000Y-109500000D02*
X102000000Y-110000000D01*
X93500000Y-112000000D02*
X93000000Y-112000000D01*
X101000000Y-113000000D02*
X100500000Y-113000000D01*
X102000000Y-110000000D02*
X102000000Y-110500000D01*
X93000000Y-112000000D02*
X93000000Y-111500000D01*
X96000000Y-113500000D02*
X96000000Y-113000000D01*
X95500000Y-112000000D02*
X95000000Y-112000000D01*
X98000000Y-114000000D02*
X97500000Y-114000000D01*
X101500000Y-113000000D02*
X101000000Y-113000000D01*
X99500000Y-113000000D02*
X99000000Y-113000000D01*
X102000000Y-111500000D02*
X102000000Y-112000000D01*
X102000000Y-112000000D02*
X102000000Y-112500000D01*
X95000000Y-112000000D02*
X94500000Y-112000000D01*
X102000000Y-111000000D02*
X102000000Y-111500000D01*
X94500000Y-112000000D02*
X94000000Y-112000000D01*
X100500000Y-113000000D02*
X100000000Y-113000000D01*
X102000000Y-110500000D02*
X102000000Y-111000000D01*
X98500000Y-114000000D02*
X98000000Y-114000000D01*
X103500000Y-109000000D02*
X103000000Y-109000000D01*
X99000000Y-113500000D02*
X99000000Y-114000000D01*
X96000000Y-112000000D02*
X95500000Y-112000000D01*
X96000000Y-113000000D02*
X96000000Y-112500000D01*
X97500000Y-114000000D02*
X97000000Y-114000000D01*
%TO.N,NET_XC2*%
X99000000Y-108000000D02*
X99500000Y-108000000D01*
X97000000Y-107000000D02*
X97500000Y-107000000D01*
X99000000Y-107500000D02*
X99000000Y-108000000D01*
X97000000Y-107500000D02*
X97000000Y-107000000D01*
X94500000Y-109000000D02*
X95000000Y-109000000D01*
X101000000Y-108000000D02*
X101500000Y-108000000D01*
X100500000Y-108000000D02*
X101000000Y-108000000D01*
X102500000Y-108000000D02*
X103000000Y-108000000D01*
X96500000Y-109000000D02*
X97000000Y-109000000D01*
X97500000Y-106500000D02*
X98000000Y-106500000D01*
X102000000Y-108000000D02*
X102500000Y-108000000D01*
X97000000Y-108000000D02*
X97000000Y-107500000D01*
X99000000Y-107000000D02*
X99000000Y-107500000D01*
X97000000Y-108500000D02*
X97000000Y-108000000D01*
X97000000Y-109000000D02*
X97000000Y-108500000D01*
X98500000Y-106500000D02*
X98500000Y-107000000D01*
X96000000Y-109000000D02*
X96500000Y-109000000D01*
X95500000Y-109000000D02*
X96000000Y-109000000D01*
X98000000Y-106500000D02*
X98500000Y-106500000D01*
X99500000Y-108000000D02*
X100000000Y-108000000D01*
X97500000Y-107000000D02*
X97500000Y-106500000D01*
X98500000Y-107000000D02*
X99000000Y-107000000D01*
X100000000Y-108000000D02*
X100500000Y-108000000D01*
X101500000Y-108000000D02*
X102000000Y-108000000D01*
X95000000Y-109000000D02*
X95500000Y-109000000D01*
%TO.N,VDD_BAT*%
D13*
X98000000Y-110500000D02*
X98000000Y-111000000D01*
X92500000Y-112500000D02*
X92000000Y-112500000D01*
X98000000Y-108000000D02*
X98000000Y-108500000D01*
D12*
X98000000Y-107500000D02*
X98000000Y-108000000D01*
D13*
X95000000Y-113000000D02*
X94500000Y-113000000D01*
X98000000Y-112000000D02*
X98000000Y-112500000D01*
X94500000Y-113000000D02*
X94000000Y-113000000D01*
X98000000Y-109000000D02*
X98000000Y-109500000D01*
X98000000Y-110000000D02*
X98000000Y-110500000D01*
X93500000Y-113000000D02*
X93000000Y-113000000D01*
D12*
X93000000Y-113000000D02*
X93000000Y-112500000D01*
D13*
X98000000Y-111000000D02*
X98000000Y-111500000D01*
X95000000Y-113500000D02*
X95000000Y-113000000D01*
D12*
X93000000Y-112500000D02*
X92500000Y-112500000D01*
D13*
X94000000Y-113000000D02*
X93500000Y-113000000D01*
X98000000Y-111500000D02*
X98000000Y-112000000D01*
D12*
X98000000Y-112500000D02*
X98000000Y-113000000D01*
D13*
X98000000Y-108500000D02*
X98000000Y-109000000D01*
X98000000Y-109500000D02*
X98000000Y-110000000D01*
D12*
X95000000Y-114000000D02*
X95000000Y-113500000D01*
%TD*%
%TA.AperFunction,Conductor*%
%TO.N,GND*%
G36*
X100064465Y-84505639D02*
G01*
X102671274Y-84733705D01*
X102684621Y-84735610D01*
X102709463Y-84740552D01*
X102717274Y-84742372D01*
X105238052Y-85417813D01*
X105247715Y-85420831D01*
X105344248Y-85455371D01*
X105354850Y-85459729D01*
X107717093Y-86561262D01*
X107728390Y-86567260D01*
X107782009Y-86599398D01*
X107789356Y-86604164D01*
X109913727Y-88091665D01*
X109913735Y-88091670D01*
X109921277Y-88097392D01*
X109989127Y-88153075D01*
X109998143Y-88161247D01*
X111838751Y-90001855D01*
X111846924Y-90010872D01*
X111902605Y-90078720D01*
X111908326Y-90086261D01*
X113395828Y-92210634D01*
X113400611Y-92218008D01*
X113432721Y-92271580D01*
X113438745Y-92282924D01*
X114540264Y-94645138D01*
X114544634Y-94655769D01*
X114579161Y-94752266D01*
X114582184Y-94761946D01*
X115257618Y-97282694D01*
X115259461Y-97290602D01*
X115264383Y-97315352D01*
X115266293Y-97328731D01*
X115494360Y-99935534D01*
X115494832Y-99946341D01*
X115494832Y-100053657D01*
X115494360Y-100064464D01*
X115266294Y-102671264D01*
X115264382Y-102684654D01*
X115259457Y-102709408D01*
X115257616Y-102717305D01*
X114582183Y-105238055D01*
X114579160Y-105247735D01*
X114544636Y-105344224D01*
X114540266Y-105354855D01*
X113438745Y-107717074D01*
X113432721Y-107728418D01*
X113400611Y-107781990D01*
X113395828Y-107789365D01*
X111908321Y-109913744D01*
X111902600Y-109921284D01*
X111846928Y-109989121D01*
X111838755Y-109998138D01*
X109998138Y-111838755D01*
X109989121Y-111846928D01*
X109921284Y-111902600D01*
X109913744Y-111908321D01*
X107789365Y-113395828D01*
X107781990Y-113400611D01*
X107728418Y-113432721D01*
X107717074Y-113438745D01*
X105354855Y-114540266D01*
X105344224Y-114544636D01*
X105247735Y-114579160D01*
X105238055Y-114582183D01*
X104439628Y-114796121D01*
X104369778Y-114794458D01*
X104311915Y-114755296D01*
X104284411Y-114691067D01*
X104285917Y-114652154D01*
X104301689Y-114572867D01*
X104303079Y-114573143D01*
X104326557Y-114514968D01*
X104361818Y-114484502D01*
X104368716Y-114480520D01*
X104480520Y-114368716D01*
X104559577Y-114231784D01*
X104600500Y-114079057D01*
X104600500Y-113724500D01*
X104620185Y-113657461D01*
X104672989Y-113611706D01*
X104724500Y-113600500D01*
X105079055Y-113600500D01*
X105079057Y-113600500D01*
X105231784Y-113559577D01*
X105368716Y-113480520D01*
X105480520Y-113368716D01*
X105559577Y-113231784D01*
X105600500Y-113079057D01*
X105600500Y-112420943D01*
X105600500Y-111920943D01*
X105600500Y-111420943D01*
X105600500Y-110920943D01*
X105600500Y-110420943D01*
X105600500Y-109920943D01*
X105600500Y-109420943D01*
X105600500Y-108920943D01*
X105600500Y-108420943D01*
X105600500Y-108079765D01*
X105620185Y-108012726D01*
X105621398Y-108010874D01*
X105709390Y-107879185D01*
X105709390Y-107879184D01*
X105709394Y-107879179D01*
X105769737Y-107733497D01*
X105800500Y-107578842D01*
X105800500Y-107421158D01*
X105800500Y-107421155D01*
X105800499Y-107421153D01*
X105774531Y-107290606D01*
X105769737Y-107266503D01*
X105769735Y-107266498D01*
X105709397Y-107120827D01*
X105709390Y-107120814D01*
X105621789Y-106989711D01*
X105621786Y-106989707D01*
X105510292Y-106878213D01*
X105510288Y-106878210D01*
X105379185Y-106790609D01*
X105379172Y-106790602D01*
X105233501Y-106730264D01*
X105233489Y-106730261D01*
X105078845Y-106699500D01*
X105078842Y-106699500D01*
X104921158Y-106699500D01*
X104921155Y-106699500D01*
X104766510Y-106730261D01*
X104766498Y-106730264D01*
X104682295Y-106765142D01*
X104612825Y-106772611D01*
X104550346Y-106741335D01*
X104527458Y-106712583D01*
X104480520Y-106631284D01*
X104368716Y-106519480D01*
X104368714Y-106519479D01*
X104368709Y-106519475D01*
X104231790Y-106440426D01*
X104231786Y-106440424D01*
X104231784Y-106440423D01*
X104079057Y-106399500D01*
X104079056Y-106399500D01*
X100724500Y-106399500D01*
X100657461Y-106379815D01*
X100611706Y-106327011D01*
X100600500Y-106275500D01*
X100600500Y-105920945D01*
X100600500Y-105920943D01*
X100559577Y-105768216D01*
X100559573Y-105768209D01*
X100480524Y-105631290D01*
X100480518Y-105631282D01*
X100368717Y-105519481D01*
X100368709Y-105519475D01*
X100231790Y-105440426D01*
X100231786Y-105440424D01*
X100231784Y-105440423D01*
X100079057Y-105399500D01*
X99579057Y-105399500D01*
X99079057Y-105399500D01*
X98579057Y-105399500D01*
X98079057Y-105399500D01*
X97579057Y-105399500D01*
X97079057Y-105399500D01*
X96579057Y-105399500D01*
X96079057Y-105399500D01*
X95579057Y-105399500D01*
X95079057Y-105399500D01*
X94579057Y-105399500D01*
X94079057Y-105399500D01*
X93579057Y-105399500D01*
X93079057Y-105399500D01*
X92920943Y-105399500D01*
X92768216Y-105440423D01*
X92768209Y-105440426D01*
X92631290Y-105519475D01*
X92631282Y-105519481D01*
X92519481Y-105631282D01*
X92519475Y-105631290D01*
X92440426Y-105768209D01*
X92440423Y-105768216D01*
X92399500Y-105920943D01*
X92399500Y-107102044D01*
X92379815Y-107169083D01*
X92327011Y-107214838D01*
X92299691Y-107223661D01*
X92266510Y-107230261D01*
X92266498Y-107230264D01*
X92120827Y-107290602D01*
X92120814Y-107290609D01*
X91989711Y-107378210D01*
X91989707Y-107378213D01*
X91878213Y-107489707D01*
X91878210Y-107489711D01*
X91790609Y-107620814D01*
X91790602Y-107620827D01*
X91730264Y-107766498D01*
X91730261Y-107766510D01*
X91699500Y-107921153D01*
X91699500Y-108078846D01*
X91730261Y-108233489D01*
X91730264Y-108233501D01*
X91790602Y-108379172D01*
X91790609Y-108379185D01*
X91878210Y-108510288D01*
X91878213Y-108510292D01*
X91989707Y-108621786D01*
X91989711Y-108621789D01*
X92120814Y-108709390D01*
X92120827Y-108709397D01*
X92258683Y-108766498D01*
X92266503Y-108769737D01*
X92421153Y-108800499D01*
X92421156Y-108800500D01*
X92421158Y-108800500D01*
X92578844Y-108800500D01*
X92578845Y-108800499D01*
X92733497Y-108769737D01*
X92879179Y-108709394D01*
X92933663Y-108672989D01*
X93010875Y-108621398D01*
X93071124Y-108602532D01*
X93070997Y-108601561D01*
X93076573Y-108600826D01*
X93077553Y-108600520D01*
X93079002Y-108600506D01*
X93079048Y-108600500D01*
X93079057Y-108600500D01*
X93231784Y-108559577D01*
X93368716Y-108480520D01*
X93480520Y-108368716D01*
X93559577Y-108231784D01*
X93600500Y-108079057D01*
X93600500Y-107420943D01*
X93600500Y-106920943D01*
X93600500Y-106724500D01*
X93620185Y-106657461D01*
X93672989Y-106611706D01*
X93724500Y-106600500D01*
X93920943Y-106600500D01*
X94420943Y-106600500D01*
X94920943Y-106600500D01*
X95420943Y-106600500D01*
X95920943Y-106600500D01*
X96324314Y-106600500D01*
X96391353Y-106620185D01*
X96437108Y-106672989D01*
X96447052Y-106742147D01*
X96442087Y-106760247D01*
X96442527Y-106760365D01*
X96440423Y-106768214D01*
X96440423Y-106768216D01*
X96399500Y-106920943D01*
X96399500Y-108275500D01*
X96379815Y-108342539D01*
X96327011Y-108388294D01*
X96275500Y-108399500D01*
X95079766Y-108399500D01*
X95012727Y-108379815D01*
X95010875Y-108378602D01*
X94879185Y-108290609D01*
X94879172Y-108290602D01*
X94733501Y-108230264D01*
X94733489Y-108230261D01*
X94578845Y-108199500D01*
X94578842Y-108199500D01*
X94421158Y-108199500D01*
X94421155Y-108199500D01*
X94266510Y-108230261D01*
X94266498Y-108230264D01*
X94120827Y-108290602D01*
X94120814Y-108290609D01*
X93989711Y-108378210D01*
X93989707Y-108378213D01*
X93878213Y-108489707D01*
X93878210Y-108489711D01*
X93790609Y-108620814D01*
X93790602Y-108620827D01*
X93730264Y-108766498D01*
X93730261Y-108766510D01*
X93699500Y-108921153D01*
X93699500Y-109078846D01*
X93730261Y-109233489D01*
X93730264Y-109233501D01*
X93790602Y-109379172D01*
X93790609Y-109379185D01*
X93878210Y-109510288D01*
X93878213Y-109510292D01*
X93989707Y-109621786D01*
X93989711Y-109621789D01*
X94120814Y-109709390D01*
X94120827Y-109709397D01*
X94266498Y-109769735D01*
X94266503Y-109769737D01*
X94421153Y-109800499D01*
X94421156Y-109800500D01*
X94421158Y-109800500D01*
X94578844Y-109800500D01*
X94578845Y-109800499D01*
X94733497Y-109769737D01*
X94879179Y-109709394D01*
X94890686Y-109701705D01*
X95010875Y-109621398D01*
X95077553Y-109600520D01*
X95079766Y-109600500D01*
X97079055Y-109600500D01*
X97079057Y-109600500D01*
X97093406Y-109596655D01*
X97163254Y-109598316D01*
X97221117Y-109637477D01*
X97248623Y-109701705D01*
X97249500Y-109716429D01*
X97249500Y-109926082D01*
X97249500Y-110426082D01*
X97249500Y-110926082D01*
X97249500Y-111426082D01*
X97249500Y-111926082D01*
X97249500Y-112573918D01*
X97259022Y-112621789D01*
X97261800Y-112635755D01*
X97255572Y-112705346D01*
X97254744Y-112707395D01*
X97230264Y-112766497D01*
X97230261Y-112766505D01*
X97199500Y-112921153D01*
X97199500Y-113078846D01*
X97230261Y-113233489D01*
X97232031Y-113239324D01*
X97229279Y-113240158D01*
X97235503Y-113297359D01*
X97204309Y-113359878D01*
X97144266Y-113395608D01*
X97113445Y-113399500D01*
X96724500Y-113399500D01*
X96657461Y-113379815D01*
X96611706Y-113327011D01*
X96600500Y-113275500D01*
X96600500Y-111920945D01*
X96600500Y-111920943D01*
X96559577Y-111768216D01*
X96519904Y-111699500D01*
X96480524Y-111631290D01*
X96480518Y-111631282D01*
X96368717Y-111519481D01*
X96368709Y-111519475D01*
X96231790Y-111440426D01*
X96231786Y-111440424D01*
X96231784Y-111440423D01*
X96079057Y-111399500D01*
X96079056Y-111399500D01*
X93897956Y-111399500D01*
X93830917Y-111379815D01*
X93785162Y-111327011D01*
X93776339Y-111299691D01*
X93769738Y-111266510D01*
X93769737Y-111266503D01*
X93752740Y-111225468D01*
X93709397Y-111120827D01*
X93709390Y-111120814D01*
X93621789Y-110989711D01*
X93621786Y-110989707D01*
X93510292Y-110878213D01*
X93510288Y-110878210D01*
X93379185Y-110790609D01*
X93379172Y-110790602D01*
X93233501Y-110730264D01*
X93233489Y-110730261D01*
X93078845Y-110699500D01*
X93078842Y-110699500D01*
X92921158Y-110699500D01*
X92921155Y-110699500D01*
X92766510Y-110730261D01*
X92766498Y-110730264D01*
X92620827Y-110790602D01*
X92620814Y-110790609D01*
X92489711Y-110878210D01*
X92489707Y-110878213D01*
X92378213Y-110989707D01*
X92378210Y-110989711D01*
X92290609Y-111120814D01*
X92290602Y-111120827D01*
X92230264Y-111266498D01*
X92230261Y-111266510D01*
X92199500Y-111421153D01*
X92199500Y-111575500D01*
X92179815Y-111642539D01*
X92127011Y-111688294D01*
X92075500Y-111699500D01*
X91921155Y-111699500D01*
X91766510Y-111730261D01*
X91766498Y-111730264D01*
X91620827Y-111790602D01*
X91620814Y-111790609D01*
X91489711Y-111878210D01*
X91489707Y-111878213D01*
X91378213Y-111989707D01*
X91378210Y-111989711D01*
X91290609Y-112120814D01*
X91290602Y-112120827D01*
X91230264Y-112266498D01*
X91230261Y-112266510D01*
X91199500Y-112421153D01*
X91199500Y-112449623D01*
X91179815Y-112516662D01*
X91127011Y-112562417D01*
X91057853Y-112572361D01*
X91004377Y-112551198D01*
X90086261Y-111908326D01*
X90078720Y-111902605D01*
X90010872Y-111846924D01*
X90001855Y-111838751D01*
X88161247Y-109998143D01*
X88153075Y-109989127D01*
X88153070Y-109989121D01*
X88097389Y-109921273D01*
X88091670Y-109913735D01*
X88060651Y-109869436D01*
X86604170Y-107789365D01*
X86599397Y-107782007D01*
X86567271Y-107728408D01*
X86561250Y-107717069D01*
X86516372Y-107620827D01*
X85459719Y-105354829D01*
X85455376Y-105344262D01*
X85420831Y-105247717D01*
X85417812Y-105238048D01*
X84742372Y-102717274D01*
X84740552Y-102709463D01*
X84735610Y-102684621D01*
X84733705Y-102671274D01*
X84547930Y-100547844D01*
X99000000Y-100547844D01*
X99006401Y-100607372D01*
X99006403Y-100607379D01*
X99056645Y-100742086D01*
X99056649Y-100742093D01*
X99142809Y-100857187D01*
X99142812Y-100857190D01*
X99257906Y-100943350D01*
X99257913Y-100943354D01*
X99392620Y-100993596D01*
X99392627Y-100993598D01*
X99452155Y-100999999D01*
X99452172Y-101000000D01*
X99750000Y-101000000D01*
X100250000Y-101000000D01*
X100547828Y-101000000D01*
X100547844Y-100999999D01*
X100607372Y-100993598D01*
X100607379Y-100993596D01*
X100742086Y-100943354D01*
X100742093Y-100943350D01*
X100857187Y-100857190D01*
X100857190Y-100857187D01*
X100943350Y-100742093D01*
X100943354Y-100742086D01*
X100993596Y-100607379D01*
X100993598Y-100607372D01*
X100999999Y-100547844D01*
X101000000Y-100547827D01*
X101000000Y-100250000D01*
X100250000Y-100250000D01*
X100250000Y-101000000D01*
X99750000Y-101000000D01*
X99750000Y-100250000D01*
X99000000Y-100250000D01*
X99000000Y-100547844D01*
X84547930Y-100547844D01*
X84505640Y-100064464D01*
X84505168Y-100053658D01*
X84505168Y-99946340D01*
X84505640Y-99935533D01*
X84521872Y-99750000D01*
X84547930Y-99452155D01*
X99000000Y-99452155D01*
X99000000Y-99750000D01*
X99750000Y-99750000D01*
X100250000Y-99750000D01*
X101000000Y-99750000D01*
X101000000Y-99452172D01*
X100999999Y-99452155D01*
X100993598Y-99392627D01*
X100993596Y-99392620D01*
X100943354Y-99257913D01*
X100943350Y-99257906D01*
X100857190Y-99142812D01*
X100857187Y-99142809D01*
X100742093Y-99056649D01*
X100742086Y-99056645D01*
X100607379Y-99006403D01*
X100607372Y-99006401D01*
X100547844Y-99000000D01*
X100250000Y-99000000D01*
X100250000Y-99750000D01*
X99750000Y-99750000D01*
X99750000Y-99000000D01*
X99452155Y-99000000D01*
X99392627Y-99006401D01*
X99392620Y-99006403D01*
X99257913Y-99056645D01*
X99257906Y-99056649D01*
X99142812Y-99142809D01*
X99142809Y-99142812D01*
X99056649Y-99257906D01*
X99056645Y-99257913D01*
X99006403Y-99392620D01*
X99006401Y-99392627D01*
X99000000Y-99452155D01*
X84547930Y-99452155D01*
X84733707Y-97328704D01*
X84735606Y-97315399D01*
X84740555Y-97290518D01*
X84742372Y-97282724D01*
X85417815Y-94761937D01*
X85420826Y-94752299D01*
X85455377Y-94655735D01*
X85459725Y-94645156D01*
X86561257Y-92282914D01*
X86567261Y-92271607D01*
X86599413Y-92217965D01*
X86604153Y-92210658D01*
X88091688Y-90086237D01*
X88097363Y-90078757D01*
X88153098Y-90010844D01*
X88161232Y-90001870D01*
X90001870Y-88161232D01*
X90010844Y-88153098D01*
X90078757Y-88097363D01*
X90086237Y-88091688D01*
X92210658Y-86604153D01*
X92217965Y-86599413D01*
X92271607Y-86567261D01*
X92282914Y-86561257D01*
X94645156Y-85459725D01*
X94655735Y-85455377D01*
X94752299Y-85420826D01*
X94761937Y-85417815D01*
X97282724Y-84742372D01*
X97290518Y-84740555D01*
X97315399Y-84735606D01*
X97328704Y-84733707D01*
X99935534Y-84505639D01*
X99946341Y-84505168D01*
X100053659Y-84505168D01*
X100064465Y-84505639D01*
G37*
%TD.AperFunction*%
%TA.AperFunction,Conductor*%
G36*
X98906584Y-108596652D02*
G01*
X98920943Y-108600500D01*
X99079057Y-108600500D01*
X99420943Y-108600500D01*
X99920943Y-108600500D01*
X100420943Y-108600500D01*
X100920943Y-108600500D01*
X101324314Y-108600500D01*
X101391353Y-108620185D01*
X101437108Y-108672989D01*
X101447052Y-108742147D01*
X101442087Y-108760247D01*
X101442527Y-108760365D01*
X101440423Y-108768214D01*
X101440423Y-108768216D01*
X101440015Y-108769738D01*
X101399500Y-108920943D01*
X101399500Y-112275500D01*
X101379815Y-112342539D01*
X101327011Y-112388294D01*
X101275500Y-112399500D01*
X98920938Y-112399500D01*
X98906591Y-112403345D01*
X98836741Y-112401681D01*
X98778880Y-112362518D01*
X98751377Y-112298289D01*
X98750500Y-112283570D01*
X98750500Y-108716429D01*
X98770185Y-108649390D01*
X98822989Y-108603635D01*
X98892147Y-108593691D01*
X98906584Y-108596652D01*
G37*
%TD.AperFunction*%
%TD*%
M02*
