M48
; DRILL file KiCad 10.0.6-1.fc44 date 2026-09-10T15:28:28
; FORMAT={-:-/ absolute / metric / decimal}
; #@! TF.CreationDate,2026-09-10T15:28:28-03:00
; #@! TF.GenerationSoftware,Kicad,Pcbnew,10.0.6-1.fc44
; #@! TF.FileFunction,MixedPlating,1,2
FMAT,2
METRIC
; #@! TA.AperFunction,Plated,PTH,ViaDrill
T1C0.300
%
G90
G05
T1
X87.241Y-104.253
X89.816Y-108.587
X91.493Y-109.705
X92.0Y-112.5
X92.5Y-108.0
X93.0Y-111.5
X94.5Y-109.0
X95.0Y-114.0
X96.539Y-109.814
X98.0Y-107.5
X98.0Y-113.0
X98.8Y-109.1
X98.8Y-110.3
X98.8Y-111.5
X100.0Y-109.1
X100.0Y-110.3
X100.0Y-111.5
X100.566Y-100.566
X100.8Y-85.345
X100.8Y-100.0
X101.2Y-109.1
X101.2Y-110.3
X101.2Y-111.5
X103.0Y-108.0
X103.5Y-109.0
X103.5Y-114.5
X104.0Y-112.0
X104.852Y-113.692
X105.0Y-107.5
X106.844Y-108.977
X107.336Y-112.982
M30
